<svg xmlns="http://www.w3.org/2000/svg" xmlns:xlink="http://www.w3.org/1999/xlink">
    <symbol viewBox="0 0 17 17" fill="none" id="search">
        <path d="M7.66667 14.3333C11.3486 14.3333 14.3333 11.3486 14.3333 7.66667C14.3333 3.98477 11.3486 1 7.66667 1C3.98477 1 1 3.98477 1 7.66667C1 11.3486 3.98477 14.3333 7.66667 14.3333Z" stroke="#6F6F6F" stroke-width="2" stroke-linecap="round" stroke-linejoin="round"/>
        <path d="M16 16L12.375 12.375" stroke="#6F6F6F" stroke-width="2" stroke-linecap="round" stroke-linejoin="round"/>
    </symbol>

    <symbol viewBox="0 0 16 4" fill="none" id="min">
        <path d="M2 2H14" stroke="#FF6600" stroke-width="3" stroke-linecap="round"/>
    </symbol>

    <symbol viewBox="0 0 20 15" fill="none" id="apply_green">
        <path d="M18 2L7 13L2 8" stroke="#178A00" stroke-width="3" stroke-linecap="round" stroke-linejoin="round"/>
    </symbol>

    <symbol viewBox="0 0 159 53" fill="none" id="appstore">
        <path d="M145.667 0.105469H12.5689C12.172 0.105469 11.6428 0.105469 11.1136 0.105469C10.7167 0.105469 10.3197 0.105469 9.92283 0.105469C8.9967 0.105469 8.20288 0.237442 7.27674 0.369416C6.35061 0.50139 5.55679 0.765337 4.76296 1.16126C3.96913 1.55718 3.30761 2.08507 2.64609 2.74494C1.98457 3.40481 1.45535 4.06468 1.05844 4.85652C0.661522 5.64836 0.396913 6.57218 0.264609 7.36402C0.132304 8.28784 0 9.21165 0 10.0035C0 10.3994 0 10.7953 0 11.1913C0 11.7192 0 12.1151 0 12.643V40.2255C0 40.7534 0 41.1493 0 41.6772C0 42.0731 0 42.469 0 42.8649C0 43.7888 0.132304 44.5806 0.264609 45.5044C0.396913 46.4282 0.661522 47.2201 1.05844 48.0119C1.45535 48.9357 1.98457 49.5956 2.64609 50.2555C3.30761 50.9153 3.96913 51.4432 4.76296 51.8392C5.55679 52.2351 6.35061 52.499 7.27674 52.631C8.20288 52.763 8.9967 52.8949 9.92283 52.8949C10.3197 52.8949 10.7167 52.8949 11.1136 52.8949C11.6428 52.8949 12.0397 52.8949 12.5689 52.8949H145.667C146.196 52.8949 146.593 52.8949 147.123 52.8949C147.519 52.8949 147.916 52.8949 148.313 52.8949C149.239 52.8949 150.033 52.763 150.959 52.631C151.885 52.499 152.679 52.2351 153.473 51.8392C154.267 51.4432 154.928 50.9153 155.59 50.2555C156.252 49.5956 156.781 48.9357 157.178 48.1439C157.575 47.352 157.839 46.5602 157.972 45.6364C158.104 44.7126 158.236 43.9207 158.236 42.9969C158.236 42.601 158.236 42.2051 158.236 41.8092C158.236 41.2813 158.236 40.8853 158.236 40.3574V12.643C158.236 12.1151 158.236 11.7192 158.236 11.1913C158.236 10.7953 158.236 10.3994 158.236 10.0035C158.236 9.07968 158.104 8.28784 157.972 7.36402C157.839 6.44021 157.575 5.64836 157.178 4.85652C156.781 4.06468 156.252 3.40481 155.59 2.74494C154.928 2.08507 154.267 1.55718 153.473 1.16126C152.679 0.765337 151.885 0.50139 150.959 0.369416C150.033 0.237442 149.239 0.105469 148.313 0.105469C147.916 0.105469 147.519 0.105469 147.123 0.105469C146.726 0.105469 146.196 0.105469 145.667 0.105469Z" fill="#B7B7B7"/>
        <path d="M11.1136 51.7074C10.7167 51.7074 10.3198 51.7074 9.92287 51.7074C9.12904 51.7074 8.33522 51.7074 7.40908 51.4435C6.61526 51.3115 5.82143 51.0475 5.15991 50.7836C4.49839 50.3877 3.83687 49.9918 3.30765 49.4639C2.77843 48.936 2.24921 48.2761 1.9846 47.6162C1.58769 46.9564 1.45538 46.2965 1.32308 45.3727C1.19078 44.4489 1.05847 43.525 1.05847 42.8652C1.05847 42.6012 1.05847 41.6774 1.05847 41.6774V11.1915C1.05847 11.1915 1.05847 10.2677 1.05847 10.0037C1.05847 9.34385 1.05847 8.42004 1.32308 7.49622C1.58769 6.83635 1.71999 6.04451 2.11691 5.38464C2.51382 4.72477 2.91073 4.0649 3.43995 3.53701C3.96917 3.00911 4.63069 2.61319 5.29221 2.21727C5.95374 1.82135 6.74756 1.68938 7.54139 1.5574C8.33522 1.29346 9.26135 1.29346 9.92287 1.29346H11.1136H147.123H148.313C148.975 1.29346 149.901 1.29346 150.827 1.5574C151.621 1.68938 152.282 1.95333 153.076 2.21727C153.738 2.61319 154.399 3.00911 154.929 3.53701C155.458 4.0649 155.987 4.72477 156.252 5.38464C156.648 6.04451 156.781 6.83635 156.913 7.49622C157.045 8.28806 157.178 9.21188 157.178 10.0037C157.178 10.3996 157.178 10.7956 157.178 11.1915C157.178 11.7194 157.178 12.1153 157.178 12.6432V40.2257C157.178 40.7536 157.178 41.1495 157.178 41.6774C157.178 42.0733 157.178 42.4693 157.178 42.8652C157.178 43.657 157.045 44.4489 156.913 45.3727C156.781 46.1645 156.516 46.9564 156.252 47.6162C155.855 48.2761 155.458 48.936 154.929 49.4639C154.399 49.9918 153.738 50.5196 153.076 50.7836C152.415 51.1795 151.753 51.3115 150.827 51.4435C150.033 51.5754 149.107 51.5754 148.313 51.7074C147.916 51.7074 147.519 51.7074 147.123 51.7074H145.667H11.1136Z" fill="#000001"/>
        <path d="M32.8115 26.8962C32.8115 23.2009 35.8545 21.4852 35.9868 21.3533C34.2669 18.8458 31.6208 18.5818 30.6947 18.4498C28.4455 18.1859 26.3286 19.7696 25.1379 19.7696C23.9471 19.7696 22.2272 18.4498 20.3749 18.4498C17.9934 18.4498 15.7443 19.9016 14.4212 22.0131C11.9074 26.3683 13.7597 32.9669 16.2735 36.5302C17.4642 38.2459 18.9196 40.2255 20.7718 40.2255C22.6241 40.0935 23.2856 39.0377 25.5348 39.0377C27.784 39.0377 28.3132 40.2255 30.2978 40.2255C32.2823 40.2255 33.4731 38.5098 34.6638 36.6622C36.1191 34.6826 36.6484 32.703 36.6484 32.571C36.6484 32.703 32.8115 31.2513 32.8115 26.8962Z" fill="white"/>
        <path d="M29.1071 16.2062C30.0332 15.0185 30.827 13.3028 30.5624 11.5872C29.1071 11.5872 27.3871 12.511 26.3287 13.8307C25.4025 14.8865 24.6087 16.6022 24.8733 18.3178C26.461 18.3178 28.1809 17.394 29.1071 16.2062Z" fill="white"/>
        <path d="M55.9648 35.8706H49.7465L48.2912 40.3577H45.6451L51.5988 23.9929H54.2449L60.1986 40.3577H57.5525L55.9648 35.8706ZM50.408 33.8909H55.4356L52.9218 26.6324H52.7895L50.408 33.8909Z" fill="white"/>
        <path d="M73.0321 34.4185C73.0321 38.1138 71.0476 40.4893 68.0046 40.4893C66.2846 40.4893 64.9616 39.6975 64.3 38.3777V44.3166H61.7863V28.4797H64.1677V30.4593C64.8293 29.1396 66.2846 28.3477 68.0046 28.3477C70.9153 28.2158 73.0321 30.7233 73.0321 34.4185ZM70.386 34.4185C70.386 32.043 69.1953 30.4593 67.2107 30.4593C65.3585 30.4593 64.0354 32.043 64.0354 34.4185C64.0354 36.7941 65.3585 38.3777 67.2107 38.3777C69.1953 38.3777 70.386 36.7941 70.386 34.4185Z" fill="white"/>
        <path d="M86.1303 34.4185C86.1303 38.1138 84.1457 40.4893 81.1027 40.4893C79.3828 40.4893 78.0597 39.6975 77.3982 38.3777V44.3166H74.8844V28.4797H77.2659V30.4593C77.9274 29.1396 79.3828 28.3477 81.1027 28.3477C84.1457 28.2158 86.1303 30.7233 86.1303 34.4185ZM83.6165 34.4185C83.6165 32.043 82.4258 30.4593 80.4412 30.4593C78.5889 30.4593 77.2659 32.043 77.2659 34.4185C77.2659 36.7941 78.5889 38.3777 80.4412 38.3777C82.4258 38.3777 83.6165 36.7941 83.6165 34.4185Z" fill="white"/>
        <path d="M94.8623 35.7384C94.9946 37.3221 96.5823 38.3778 98.8315 38.3778C100.948 38.3778 102.404 37.3221 102.404 35.8703C102.404 34.5506 101.478 33.8907 99.3607 33.3628L97.2438 32.8349C94.2008 32.0431 92.8778 30.7234 92.8778 28.4798C92.8778 25.7084 95.3915 23.7288 98.8315 23.7288C102.271 23.7288 104.653 25.7084 104.785 28.4798H102.271C102.139 26.8961 100.816 25.8403 98.8315 25.8403C96.8469 25.8403 95.5239 26.8961 95.5239 28.3478C95.5239 29.5356 96.45 30.1955 98.5669 30.7234L100.419 31.1193C103.727 31.9111 105.182 33.2309 105.182 35.6064C105.182 38.6418 102.668 40.6214 98.8315 40.6214C95.1269 40.6214 92.7455 38.7738 92.6132 35.7384H94.8623Z" fill="white"/>
        <path d="M110.21 25.5767V28.3481H112.459V30.3277H110.21V36.9264C110.21 37.9822 110.607 38.3781 111.665 38.3781C111.93 38.3781 112.327 38.3781 112.459 38.3781V40.3577C112.194 40.4897 111.665 40.4897 111.136 40.4897C108.754 40.4897 107.828 39.5659 107.828 37.3223V30.4597H106.108V28.4801H107.828V25.7086H110.21V25.5767Z" fill="white"/>
        <path d="M113.914 34.4187C113.914 30.7234 116.163 28.3479 119.603 28.3479C123.043 28.3479 125.292 30.7234 125.292 34.4187C125.292 38.2459 123.043 40.4895 119.603 40.4895C116.031 40.4895 113.914 38.114 113.914 34.4187ZM122.779 34.4187C122.779 31.7792 121.588 30.3275 119.603 30.3275C117.619 30.3275 116.428 31.7792 116.428 34.4187C116.428 37.0582 117.619 38.5099 119.603 38.5099C121.588 38.5099 122.779 36.9262 122.779 34.4187Z" fill="white"/>
        <path d="M127.277 28.3479H129.658V30.4595C130.055 29.1397 131.114 28.3479 132.569 28.3479C132.966 28.3479 133.231 28.3479 133.363 28.4799V30.7234C133.231 30.5915 132.701 30.5915 132.305 30.5915C130.717 30.5915 129.791 31.6472 129.791 33.3629V40.4895H127.277V28.3479Z" fill="white"/>
        <path d="M144.741 36.7944C144.344 38.9059 142.227 40.4896 139.581 40.4896C136.141 40.4896 133.892 38.1141 133.892 34.4188C133.892 30.7236 136.009 28.2161 139.449 28.2161C142.757 28.2161 144.873 30.4596 144.873 34.1549V34.9467H136.406V35.0787C136.406 37.0583 137.729 38.51 139.581 38.51C140.904 38.51 141.963 37.8501 142.36 36.7944H144.741ZM136.406 33.2311H142.36C142.36 31.3834 141.169 30.1957 139.449 30.1957C137.729 30.1957 136.538 31.5154 136.406 33.2311Z" fill="white"/>
        <path d="M48.5557 15.0184H49.6141C50.5403 15.0184 51.0695 14.4905 51.0695 13.6986C51.0695 12.9068 50.5403 12.5109 49.6141 12.5109C48.688 12.5109 48.0265 13.0388 48.0265 13.6986H46.8357C46.968 12.2469 48.0265 11.4551 49.6141 11.4551C51.2018 11.4551 52.2602 12.3789 52.2602 13.5667C52.2602 14.4905 51.731 15.1503 50.8049 15.4143V15.5463C51.8633 15.6782 52.5248 16.3381 52.5248 17.3939C52.5248 18.7136 51.2018 19.7694 49.6141 19.7694C47.8942 19.7694 46.7034 18.8456 46.7034 17.3939H47.8942C48.0265 18.1857 48.688 18.5817 49.7464 18.5817C50.8049 18.5817 51.4664 18.0538 51.4664 17.2619C51.4664 16.4701 50.8049 15.9422 49.7464 15.9422H48.688V15.0184H48.5557Z" fill="white"/>
        <path d="M53.9802 17.7897C53.9802 16.7339 54.774 16.074 56.2293 16.074L57.817 15.9421V15.4142C57.817 14.7543 57.4201 14.4904 56.6263 14.4904C55.9647 14.4904 55.5678 14.7543 55.4355 15.1502H54.2448C54.3771 14.0944 55.3032 13.4346 56.6263 13.4346C58.0816 13.4346 59.0077 14.2264 59.0077 15.4142V19.5054H57.817V18.7135H57.6847C57.2878 19.3734 56.6263 19.6373 55.8324 19.6373C54.9063 19.6373 53.9802 18.8455 53.9802 17.7897ZM57.817 17.2618V16.7339L56.3616 16.8659C55.5678 16.8659 55.1709 17.2618 55.1709 17.6577C55.1709 18.1856 55.7001 18.4496 56.2293 18.4496C57.1555 18.5815 57.817 18.0536 57.817 17.2618Z" fill="white"/>
        <path d="M62.183 14.4902V19.5052H60.9923V13.5664H64.9614V14.4902H62.183Z" fill="white"/>
        <path d="M71.9736 16.4701C71.9736 18.3177 71.0475 19.5055 69.4598 19.5055C68.666 19.5055 67.8721 19.1096 67.6075 18.4497H67.4752V21.3531H66.2845V13.4347H67.4752V14.3585H67.6075C68.0044 13.6987 68.666 13.3027 69.4598 13.3027C71.0475 13.4347 71.9736 14.6225 71.9736 16.4701ZM70.7828 16.4701C70.7828 15.1504 70.1213 14.4905 69.1952 14.4905C68.2691 14.4905 67.6075 15.2823 67.6075 16.4701C67.6075 17.6579 68.2691 18.4497 69.1952 18.4497C70.2536 18.5817 70.7828 17.7898 70.7828 16.4701Z" fill="white"/>
        <path d="M73.5613 21.6168V20.561C73.6936 20.561 73.8259 20.561 73.9582 20.561C74.4874 20.561 74.8843 20.2971 75.0166 19.7692L75.1489 19.5052L73.032 13.5664H74.3551L75.8104 18.3175H75.9427L77.3981 13.5664H78.5888L76.3397 19.7692C75.8104 21.2209 75.2812 21.6168 74.0905 21.6168C73.9582 21.6168 73.6936 21.6168 73.5613 21.6168Z" fill="white"/>
        <path d="M79.5149 17.7897H80.7056C80.8379 18.3176 81.3672 18.5815 82.0287 18.5815C82.8225 18.5815 83.3517 18.1856 83.3517 17.6577C83.3517 17.1298 82.9548 16.8659 82.0287 16.8659H81.1025V15.9421H82.0287C82.6902 15.9421 83.0871 15.6781 83.0871 15.1502C83.0871 14.7543 82.6902 14.3584 82.0287 14.3584C81.3672 14.3584 80.8379 14.6223 80.8379 15.1502H79.6472C79.7795 14.0944 80.7056 13.4346 82.0287 13.4346C83.484 13.4346 84.2778 14.0944 84.2778 15.0183C84.2778 15.6781 83.8809 16.074 83.3517 16.206V16.338C84.1455 16.47 84.5425 16.9979 84.5425 17.6577C84.5425 18.8455 83.6163 19.5054 82.161 19.5054C80.7056 19.6373 79.6472 18.9775 79.5149 17.7897Z" fill="white"/>
        <path d="M86.1301 19.5052V13.5664H87.3209V17.6576L90.0993 13.5664H91.29V19.5052H90.0993V15.414H89.967L87.1886 19.5052H86.1301Z" fill="white"/>
        <path d="M97.6406 14.4902H95.7884V19.5052H94.5976V14.4902H92.7454V13.5664H97.6406V14.4902Z" fill="white"/>
        <path d="M103.991 17.9217C103.727 18.9775 102.801 19.6373 101.345 19.6373C99.6252 19.6373 98.5668 18.4496 98.5668 16.6019C98.5668 14.7543 99.6252 13.4346 101.345 13.4346C103.065 13.4346 103.991 14.6223 103.991 16.47V16.8659H99.7575C99.7575 17.9217 100.419 18.5815 101.345 18.5815C102.007 18.5815 102.536 18.3176 102.801 17.9217H103.991ZM99.8898 15.9421H102.933C102.933 15.0183 102.271 14.3584 101.477 14.3584C100.551 14.4904 99.8898 15.0183 99.8898 15.9421Z" fill="white"/>
        <path d="M109.019 13.5664H111.665C112.856 13.5664 113.517 14.0943 113.517 15.0181C113.517 15.678 113.12 16.2059 112.459 16.3379V16.4698C113.253 16.6018 113.782 17.1297 113.782 17.7896C113.782 18.8454 112.988 19.5052 111.665 19.5052H108.886V13.5664H109.019ZM110.21 14.4902V15.9419H111.4C112.062 15.9419 112.459 15.678 112.459 15.1501C112.459 14.6222 112.194 14.3582 111.533 14.3582H110.21V14.4902ZM110.21 16.8657V18.5814H111.665C112.326 18.5814 112.723 18.3175 112.723 17.6576C112.723 16.9977 112.326 16.7338 111.533 16.7338H110.21V16.8657Z" fill="white"/>
    </symbol>

    <symbol viewBox="0 0 10 6" fill="none" id="arrow_down">
        <path d="M1 1L5 5L9 1" stroke="#333333" stroke-linecap="round" stroke-linejoin="round"/>
    </symbol>

    <symbol viewBox="0 0 10 6" fill="none" id="arrow_down_grey">
        <path d="M1 1L5 5L9 1" stroke="#333333" stroke-linecap="round" stroke-linejoin="round"/>
    </symbol>

    <symbol viewBox="0 0 10 6" fill="none" id="arrow_down_orange">
        <path d="M1 1L5 5L9 1" stroke="#F76201" stroke-width="2" stroke-linecap="round" stroke-linejoin="round"/>
    </symbol>

    <symbol viewBox="0 0 52 52" fill="none" id="inst_logo">
        <rect width="52" height="52" rx="10" fill="#FF6600"/>
        <path d="M31.3801 15.2412H20.6215C17.6506 15.2412 15.2422 17.6496 15.2422 20.6205V31.3791C15.2422 34.3501 17.6506 36.7585 20.6215 36.7585H31.3801C34.351 36.7585 36.7594 34.3501 36.7594 31.3791V20.6205C36.7594 17.6496 34.351 15.2412 31.3801 15.2412Z" fill="#FF6600" stroke="white" stroke-width="3" stroke-linecap="round" stroke-linejoin="round"/>
        <path d="M30.3025 25.3226C30.4353 26.218 30.2824 27.1324 29.8655 27.9359C29.4486 28.7393 28.789 29.3909 27.9804 29.7978C27.1719 30.2048 26.2556 30.3464 25.362 30.2026C24.4683 30.0588 23.6427 29.6369 23.0026 28.9968C22.3626 28.3568 21.9407 27.5312 21.7968 26.6375C21.653 25.7439 21.7947 24.8276 22.2017 24.0191C22.6086 23.2105 23.2601 22.5509 24.0636 22.134C24.8671 21.7171 25.7815 21.5642 26.6769 21.6969C27.5902 21.8324 28.4358 22.258 29.0886 22.9108C29.7415 23.5637 30.1671 24.4093 30.3025 25.3226Z" fill="#FF6600" stroke="white" stroke-width="3" stroke-linecap="round" stroke-linejoin="round"/>
        <path d="M31.916 20.083H31.9264" stroke="white" stroke-width="3" stroke-linecap="round" stroke-linejoin="round"/>
    </symbol>

    <symbol viewBox="0 0 53 52" fill="none" id="fb_logo">
        <rect x="0.758301" width="52" height="52" rx="10" fill="#FF6600"/>
        <path d="M33.2144 15.2412H29.9868C28.5601 15.2412 27.1918 15.808 26.183 16.8168C25.1742 17.8256 24.6075 19.1938 24.6075 20.6205V23.8481H21.3799V28.1516H24.6075V36.7585H28.9109V28.1516H32.1385L33.2144 23.8481H28.9109V20.6205C28.9109 20.3352 29.0243 20.0615 29.226 19.8598C29.4278 19.658 29.7014 19.5447 29.9868 19.5447H33.2144V15.2412Z" fill="white"/>
    </symbol>

    <symbol viewBox="0 0 53 52" fill="none" id="vk_logo">
        <rect x="0.517456" width="52" height="52" rx="10" fill="#FF6600"/>
        <path d="M38.459 19.8009C38.6249 19.2405 38.459 18.8281 37.6611 18.8281H35.0208C34.3483 18.8281 34.039 19.1823 33.8732 19.5768C33.8732 19.5768 32.5284 22.8536 30.6277 24.9784C30.0136 25.5925 29.7312 25.7898 29.395 25.7898C29.2292 25.7898 28.9736 25.5925 28.9736 25.0322V19.8009C28.9736 19.1284 28.7853 18.8281 28.2295 18.8281H24.0784C23.6571 18.8281 23.406 19.1419 23.406 19.4333C23.406 20.0698 24.3564 20.2177 24.455 22.0108V25.9019C24.455 26.7536 24.3026 26.9104 23.9664 26.9104C23.0698 26.9104 20.8912 23.6202 19.6002 19.8547C19.3403 19.124 19.0847 18.8281 18.4078 18.8281H15.7674C15.0143 18.8281 14.8618 19.1823 14.8618 19.5768C14.8618 20.276 15.7584 23.7502 19.0353 28.3405C21.2184 31.4739 24.2935 33.173 27.0907 33.173C28.7717 33.173 28.978 32.7964 28.978 32.1464C28.978 29.1519 28.8256 28.8694 29.6684 28.8694C30.0583 28.8694 30.7307 29.0667 32.2998 30.5773C34.0927 32.3704 34.3887 33.1729 35.3928 33.1729H38.0331C38.7863 33.1729 39.1673 32.7964 38.9476 32.0521C38.4456 30.4877 35.0521 27.2691 34.8997 27.0539C34.5097 26.5518 34.6217 26.3276 34.8997 25.8793C34.9043 25.875 38.1272 21.3384 38.459 19.8009Z" fill="white"/>
    </symbol>

    <symbol viewBox="0 0 52 52" fill="none" id="ok_logo">
        <rect width="52" height="52" rx="10" fill="#FF6600"/>
        <path d="M26.3941 14C23.0852 14 20.3943 16.6909 20.3943 19.9998C20.3943 23.3088 23.0852 25.9997 26.3941 25.9997C29.7031 25.9997 32.394 23.3088 32.394 19.9998C32.394 16.6909 29.7031 14 26.3941 14ZM26.3941 22.9998C24.7397 22.9998 23.3942 21.6543 23.3942 19.9998C23.3942 18.3454 24.7397 16.9999 26.3941 16.9999C28.0486 16.9999 29.3941 18.3454 29.3941 19.9998C29.3941 21.6543 28.0486 22.9998 26.3941 22.9998Z" fill="white"/>
        <path d="M34.35 25.8334C33.7635 25.2469 32.8155 25.2469 32.229 25.8334C29.0131 29.0493 23.7782 29.0493 20.5608 25.8334C19.9743 25.2469 19.0263 25.2469 18.4399 25.8334C17.8534 26.4199 17.8534 27.3679 18.4399 27.9559C20.3058 29.8218 22.6713 30.8853 25.1102 31.1628L20.8338 35.4392C20.2473 36.0257 20.2473 36.9736 20.8338 37.5601C21.4203 38.1466 22.3683 38.1466 22.9548 37.5601L26.3942 34.1207L29.8336 37.5601C30.1261 37.8526 30.5101 37.9996 30.8941 37.9996C31.278 37.9996 31.662 37.8526 31.9545 37.5601C32.541 36.9736 32.541 36.0257 31.9545 35.4392L27.6781 31.1628C30.1171 30.8853 32.4825 29.8218 34.3485 27.9559C34.9349 27.3694 34.9349 26.4199 34.35 25.8334Z" fill="white"/>
    </symbol>

    <symbol viewBox="0 0 53 52" fill="none" id="youtube_logo">
        <rect x="0.275635" width="52" height="52" rx="10" fill="#FF6600"/>
        <path d="M39.1559 21.5268C39.1559 21.5268 38.9095 19.7891 38.1546 19.0224C37.1954 18.0187 36.1202 18.0136 35.6276 17.9539C32.0976 17.6992 26.7989 17.6992 26.7989 17.6992C26.7989 17.6992 21.4993 17.6992 17.9702 17.9548C17.4775 18.0136 16.4023 18.0187 15.4431 19.0233C14.6865 19.7891 14.441 21.5268 14.441 21.5268C14.441 21.5268 14.1888 23.2249 14.1888 25.2652V27.7881C14.1888 29.8284 14.441 31.6039 14.441 31.6039C14.441 31.6039 14.6865 33.3407 15.4431 34.1065C16.4023 35.1111 17.6625 35.08 18.2241 35.1851C20.2417 35.3785 26.7989 35.3541 26.7989 35.3541C26.7989 35.3541 32.0976 35.4298 35.6276 35.175C36.1202 35.1162 37.1954 35.1111 38.1546 34.1065C38.9095 33.3415 39.1559 31.6039 39.1559 31.6039C39.1559 31.6039 39.4089 29.8292 39.4089 27.7889V25.2661C39.4089 23.2249 39.1559 21.5268 39.1559 21.5268ZM24.1124 29.8948V23.1694L30.8377 26.5321L24.1124 29.8948Z" fill="white"/>
    </symbol>

    <symbol viewBox="0 0 159 53" fill="none" id="appstore">
        <g clip-path="url(#clip0_2283_32)">
        <path d="M145.667 0.105469H12.5689C12.172 0.105469 11.6428 0.105469 11.1136 0.105469C10.7167 0.105469 10.3197 0.105469 9.92283 0.105469C8.9967 0.105469 8.20288 0.237442 7.27674 0.369416C6.35061 0.50139 5.55679 0.765337 4.76296 1.16126C3.96913 1.55718 3.30761 2.08507 2.64609 2.74494C1.98457 3.40481 1.45535 4.06468 1.05844 4.85652C0.661522 5.64836 0.396913 6.57218 0.264609 7.36402C0.132304 8.28784 0 9.21165 0 10.0035C0 10.3994 0 10.7953 0 11.1913C0 11.7192 0 12.1151 0 12.643V40.2255C0 40.7534 0 41.1493 0 41.6772C0 42.0731 0 42.469 0 42.8649C0 43.7888 0.132304 44.5806 0.264609 45.5044C0.396913 46.4282 0.661522 47.2201 1.05844 48.0119C1.45535 48.9357 1.98457 49.5956 2.64609 50.2555C3.30761 50.9153 3.96913 51.4432 4.76296 51.8392C5.55679 52.2351 6.35061 52.499 7.27674 52.631C8.20288 52.763 8.9967 52.8949 9.92283 52.8949C10.3197 52.8949 10.7167 52.8949 11.1136 52.8949C11.6428 52.8949 12.0397 52.8949 12.5689 52.8949H145.667C146.196 52.8949 146.593 52.8949 147.123 52.8949C147.519 52.8949 147.916 52.8949 148.313 52.8949C149.239 52.8949 150.033 52.763 150.959 52.631C151.885 52.499 152.679 52.2351 153.473 51.8392C154.267 51.4432 154.928 50.9153 155.59 50.2555C156.252 49.5956 156.781 48.9357 157.178 48.1439C157.575 47.352 157.839 46.5602 157.972 45.6364C158.104 44.7126 158.236 43.9207 158.236 42.9969C158.236 42.601 158.236 42.2051 158.236 41.8092C158.236 41.2813 158.236 40.8853 158.236 40.3574V12.643C158.236 12.1151 158.236 11.7192 158.236 11.1913C158.236 10.7953 158.236 10.3994 158.236 10.0035C158.236 9.07968 158.104 8.28784 157.972 7.36402C157.839 6.44021 157.575 5.64836 157.178 4.85652C156.781 4.06468 156.252 3.40481 155.59 2.74494C154.928 2.08507 154.267 1.55718 153.473 1.16126C152.679 0.765337 151.885 0.50139 150.959 0.369416C150.033 0.237442 149.239 0.105469 148.313 0.105469C147.916 0.105469 147.519 0.105469 147.123 0.105469C146.726 0.105469 146.196 0.105469 145.667 0.105469Z" fill="#B7B7B7"/>
        <path d="M11.1136 51.7074C10.7167 51.7074 10.3198 51.7074 9.92287 51.7074C9.12904 51.7074 8.33522 51.7074 7.40908 51.4435C6.61526 51.3115 5.82143 51.0475 5.15991 50.7836C4.49839 50.3877 3.83687 49.9918 3.30765 49.4639C2.77843 48.936 2.24921 48.2761 1.9846 47.6162C1.58769 46.9564 1.45538 46.2965 1.32308 45.3727C1.19078 44.4489 1.05847 43.525 1.05847 42.8652C1.05847 42.6012 1.05847 41.6774 1.05847 41.6774V11.1915C1.05847 11.1915 1.05847 10.2677 1.05847 10.0037C1.05847 9.34385 1.05847 8.42004 1.32308 7.49622C1.58769 6.83635 1.71999 6.04451 2.11691 5.38464C2.51382 4.72477 2.91073 4.0649 3.43995 3.53701C3.96917 3.00911 4.63069 2.61319 5.29221 2.21727C5.95374 1.82135 6.74756 1.68938 7.54139 1.5574C8.33522 1.29346 9.26135 1.29346 9.92287 1.29346H11.1136H147.123H148.313C148.975 1.29346 149.901 1.29346 150.827 1.5574C151.621 1.68938 152.282 1.95333 153.076 2.21727C153.738 2.61319 154.399 3.00911 154.929 3.53701C155.458 4.0649 155.987 4.72477 156.252 5.38464C156.648 6.04451 156.781 6.83635 156.913 7.49622C157.045 8.28806 157.178 9.21188 157.178 10.0037C157.178 10.3996 157.178 10.7956 157.178 11.1915C157.178 11.7194 157.178 12.1153 157.178 12.6432V40.2257C157.178 40.7536 157.178 41.1495 157.178 41.6774C157.178 42.0733 157.178 42.4693 157.178 42.8652C157.178 43.657 157.045 44.4489 156.913 45.3727C156.781 46.1645 156.516 46.9564 156.252 47.6162C155.855 48.2761 155.458 48.936 154.929 49.4639C154.399 49.9918 153.738 50.5196 153.076 50.7836C152.415 51.1795 151.753 51.3115 150.827 51.4435C150.033 51.5754 149.107 51.5754 148.313 51.7074C147.916 51.7074 147.519 51.7074 147.123 51.7074H145.667H11.1136Z" fill="#000001"/>
        <path d="M32.8115 26.8962C32.8115 23.2009 35.8545 21.4852 35.9868 21.3533C34.2669 18.8458 31.6208 18.5818 30.6947 18.4498C28.4455 18.1859 26.3286 19.7696 25.1379 19.7696C23.9471 19.7696 22.2272 18.4498 20.3749 18.4498C17.9934 18.4498 15.7443 19.9016 14.4212 22.0131C11.9074 26.3683 13.7597 32.9669 16.2735 36.5302C17.4642 38.2459 18.9196 40.2255 20.7718 40.2255C22.6241 40.0935 23.2856 39.0377 25.5348 39.0377C27.784 39.0377 28.3132 40.2255 30.2978 40.2255C32.2823 40.2255 33.4731 38.5098 34.6638 36.6622C36.1191 34.6826 36.6484 32.703 36.6484 32.571C36.6484 32.703 32.8115 31.2513 32.8115 26.8962Z" fill="white"/>
        <path d="M29.1071 16.2062C30.0332 15.0185 30.827 13.3028 30.5624 11.5872C29.1071 11.5872 27.3871 12.511 26.3287 13.8307C25.4025 14.8865 24.6087 16.6022 24.8733 18.3178C26.461 18.3178 28.1809 17.394 29.1071 16.2062Z" fill="white"/>
        <path d="M55.9648 35.8706H49.7465L48.2912 40.3577H45.6451L51.5988 23.9929H54.2449L60.1986 40.3577H57.5525L55.9648 35.8706ZM50.408 33.8909H55.4356L52.9218 26.6324H52.7895L50.408 33.8909Z" fill="white"/>
        <path d="M73.0321 34.4185C73.0321 38.1138 71.0476 40.4893 68.0046 40.4893C66.2846 40.4893 64.9616 39.6975 64.3 38.3777V44.3166H61.7863V28.4797H64.1677V30.4593C64.8293 29.1396 66.2846 28.3477 68.0046 28.3477C70.9153 28.2158 73.0321 30.7233 73.0321 34.4185ZM70.386 34.4185C70.386 32.043 69.1953 30.4593 67.2107 30.4593C65.3585 30.4593 64.0354 32.043 64.0354 34.4185C64.0354 36.7941 65.3585 38.3777 67.2107 38.3777C69.1953 38.3777 70.386 36.7941 70.386 34.4185Z" fill="white"/>
        <path d="M86.1303 34.4185C86.1303 38.1138 84.1457 40.4893 81.1027 40.4893C79.3828 40.4893 78.0597 39.6975 77.3982 38.3777V44.3166H74.8844V28.4797H77.2659V30.4593C77.9274 29.1396 79.3828 28.3477 81.1027 28.3477C84.1457 28.2158 86.1303 30.7233 86.1303 34.4185ZM83.6165 34.4185C83.6165 32.043 82.4258 30.4593 80.4412 30.4593C78.5889 30.4593 77.2659 32.043 77.2659 34.4185C77.2659 36.7941 78.5889 38.3777 80.4412 38.3777C82.4258 38.3777 83.6165 36.7941 83.6165 34.4185Z" fill="white"/>
        <path d="M94.8623 35.7384C94.9946 37.3221 96.5823 38.3778 98.8315 38.3778C100.948 38.3778 102.404 37.3221 102.404 35.8703C102.404 34.5506 101.478 33.8907 99.3607 33.3628L97.2438 32.8349C94.2008 32.0431 92.8778 30.7234 92.8778 28.4798C92.8778 25.7084 95.3915 23.7288 98.8315 23.7288C102.271 23.7288 104.653 25.7084 104.785 28.4798H102.271C102.139 26.8961 100.816 25.8403 98.8315 25.8403C96.8469 25.8403 95.5239 26.8961 95.5239 28.3478C95.5239 29.5356 96.45 30.1955 98.5669 30.7234L100.419 31.1193C103.727 31.9111 105.182 33.2309 105.182 35.6064C105.182 38.6418 102.668 40.6214 98.8315 40.6214C95.1269 40.6214 92.7455 38.7738 92.6132 35.7384H94.8623Z" fill="white"/>
        <path d="M110.21 25.5767V28.3481H112.459V30.3277H110.21V36.9264C110.21 37.9822 110.607 38.3781 111.665 38.3781C111.93 38.3781 112.327 38.3781 112.459 38.3781V40.3577C112.194 40.4897 111.665 40.4897 111.136 40.4897C108.754 40.4897 107.828 39.5659 107.828 37.3223V30.4597H106.108V28.4801H107.828V25.7086H110.21V25.5767Z" fill="white"/>
        <path d="M113.914 34.4187C113.914 30.7234 116.163 28.3479 119.603 28.3479C123.043 28.3479 125.292 30.7234 125.292 34.4187C125.292 38.2459 123.043 40.4895 119.603 40.4895C116.031 40.4895 113.914 38.114 113.914 34.4187ZM122.779 34.4187C122.779 31.7792 121.588 30.3275 119.603 30.3275C117.619 30.3275 116.428 31.7792 116.428 34.4187C116.428 37.0582 117.619 38.5099 119.603 38.5099C121.588 38.5099 122.779 36.9262 122.779 34.4187Z" fill="white"/>
        <path d="M127.277 28.3479H129.658V30.4595C130.055 29.1397 131.114 28.3479 132.569 28.3479C132.966 28.3479 133.231 28.3479 133.363 28.4799V30.7234C133.231 30.5915 132.701 30.5915 132.305 30.5915C130.717 30.5915 129.791 31.6472 129.791 33.3629V40.4895H127.277V28.3479Z" fill="white"/>
        <path d="M144.741 36.7944C144.344 38.9059 142.227 40.4896 139.581 40.4896C136.141 40.4896 133.892 38.1141 133.892 34.4188C133.892 30.7236 136.009 28.2161 139.449 28.2161C142.757 28.2161 144.873 30.4596 144.873 34.1549V34.9467H136.406V35.0787C136.406 37.0583 137.729 38.51 139.581 38.51C140.904 38.51 141.963 37.8501 142.36 36.7944H144.741ZM136.406 33.2311H142.36C142.36 31.3834 141.169 30.1957 139.449 30.1957C137.729 30.1957 136.538 31.5154 136.406 33.2311Z" fill="white"/>
        <path d="M48.5557 15.0184H49.6141C50.5403 15.0184 51.0695 14.4905 51.0695 13.6986C51.0695 12.9068 50.5403 12.5109 49.6141 12.5109C48.688 12.5109 48.0265 13.0388 48.0265 13.6986H46.8357C46.968 12.2469 48.0265 11.4551 49.6141 11.4551C51.2018 11.4551 52.2602 12.3789 52.2602 13.5667C52.2602 14.4905 51.731 15.1503 50.8049 15.4143V15.5463C51.8633 15.6782 52.5248 16.3381 52.5248 17.3939C52.5248 18.7136 51.2018 19.7694 49.6141 19.7694C47.8942 19.7694 46.7034 18.8456 46.7034 17.3939H47.8942C48.0265 18.1857 48.688 18.5817 49.7464 18.5817C50.8049 18.5817 51.4664 18.0538 51.4664 17.2619C51.4664 16.4701 50.8049 15.9422 49.7464 15.9422H48.688V15.0184H48.5557Z" fill="white"/>
        <path d="M53.9802 17.7897C53.9802 16.7339 54.774 16.074 56.2293 16.074L57.817 15.9421V15.4142C57.817 14.7543 57.4201 14.4904 56.6263 14.4904C55.9647 14.4904 55.5678 14.7543 55.4355 15.1502H54.2448C54.3771 14.0944 55.3032 13.4346 56.6263 13.4346C58.0816 13.4346 59.0077 14.2264 59.0077 15.4142V19.5054H57.817V18.7135H57.6847C57.2878 19.3734 56.6263 19.6373 55.8324 19.6373C54.9063 19.6373 53.9802 18.8455 53.9802 17.7897ZM57.817 17.2618V16.7339L56.3616 16.8659C55.5678 16.8659 55.1709 17.2618 55.1709 17.6577C55.1709 18.1856 55.7001 18.4496 56.2293 18.4496C57.1555 18.5815 57.817 18.0536 57.817 17.2618Z" fill="white"/>
        <path d="M62.183 14.4902V19.5052H60.9923V13.5664H64.9614V14.4902H62.183Z" fill="white"/>
        <path d="M71.9736 16.4701C71.9736 18.3177 71.0475 19.5055 69.4598 19.5055C68.666 19.5055 67.8721 19.1096 67.6075 18.4497H67.4752V21.3531H66.2845V13.4347H67.4752V14.3585H67.6075C68.0044 13.6987 68.666 13.3027 69.4598 13.3027C71.0475 13.4347 71.9736 14.6225 71.9736 16.4701ZM70.7828 16.4701C70.7828 15.1504 70.1213 14.4905 69.1952 14.4905C68.2691 14.4905 67.6075 15.2823 67.6075 16.4701C67.6075 17.6579 68.2691 18.4497 69.1952 18.4497C70.2536 18.5817 70.7828 17.7898 70.7828 16.4701Z" fill="white"/>
        <path d="M73.5613 21.6168V20.561C73.6936 20.561 73.8259 20.561 73.9582 20.561C74.4874 20.561 74.8843 20.2971 75.0166 19.7692L75.1489 19.5052L73.032 13.5664H74.3551L75.8104 18.3175H75.9427L77.3981 13.5664H78.5888L76.3397 19.7692C75.8104 21.2209 75.2812 21.6168 74.0905 21.6168C73.9582 21.6168 73.6936 21.6168 73.5613 21.6168Z" fill="white"/>
        <path d="M79.5149 17.7897H80.7056C80.8379 18.3176 81.3672 18.5815 82.0287 18.5815C82.8225 18.5815 83.3517 18.1856 83.3517 17.6577C83.3517 17.1298 82.9548 16.8659 82.0287 16.8659H81.1025V15.9421H82.0287C82.6902 15.9421 83.0871 15.6781 83.0871 15.1502C83.0871 14.7543 82.6902 14.3584 82.0287 14.3584C81.3672 14.3584 80.8379 14.6223 80.8379 15.1502H79.6472C79.7795 14.0944 80.7056 13.4346 82.0287 13.4346C83.484 13.4346 84.2778 14.0944 84.2778 15.0183C84.2778 15.6781 83.8809 16.074 83.3517 16.206V16.338C84.1455 16.47 84.5425 16.9979 84.5425 17.6577C84.5425 18.8455 83.6163 19.5054 82.161 19.5054C80.7056 19.6373 79.6472 18.9775 79.5149 17.7897Z" fill="white"/>
        <path d="M86.1301 19.5052V13.5664H87.3209V17.6576L90.0993 13.5664H91.29V19.5052H90.0993V15.414H89.967L87.1886 19.5052H86.1301Z" fill="white"/>
        <path d="M97.6406 14.4902H95.7884V19.5052H94.5976V14.4902H92.7454V13.5664H97.6406V14.4902Z" fill="white"/>
        <path d="M103.991 17.9217C103.727 18.9775 102.801 19.6373 101.345 19.6373C99.6252 19.6373 98.5668 18.4496 98.5668 16.6019C98.5668 14.7543 99.6252 13.4346 101.345 13.4346C103.065 13.4346 103.991 14.6223 103.991 16.47V16.8659H99.7575C99.7575 17.9217 100.419 18.5815 101.345 18.5815C102.007 18.5815 102.536 18.3176 102.801 17.9217H103.991ZM99.8898 15.9421H102.933C102.933 15.0183 102.271 14.3584 101.477 14.3584C100.551 14.4904 99.8898 15.0183 99.8898 15.9421Z" fill="white"/>
        <path d="M109.019 13.5664H111.665C112.856 13.5664 113.517 14.0943 113.517 15.0181C113.517 15.678 113.12 16.2059 112.459 16.3379V16.4698C113.253 16.6018 113.782 17.1297 113.782 17.7896C113.782 18.8454 112.988 19.5052 111.665 19.5052H108.886V13.5664H109.019ZM110.21 14.4902V15.9419H111.4C112.062 15.9419 112.459 15.678 112.459 15.1501C112.459 14.6222 112.194 14.3582 111.533 14.3582H110.21V14.4902ZM110.21 16.8657V18.5814H111.665C112.326 18.5814 112.723 18.3175 112.723 17.6576C112.723 16.9977 112.326 16.7338 111.533 16.7338H110.21V16.8657Z" fill="white"/>
        </g>
        <defs>
        <clipPath id="clip0_2283_32">
        <rect width="158.368" height="52.7895" fill="white" transform="translate(0 0.105469)"/>
        </clipPath>
        </defs>
    </symbol>

    <symbol viewBox="0 0 60 60" fill="none" id="plus-circle">
        <path d="M30 55C43.8071 55 55 43.8071 55 30C55 16.1929 43.8071 5 30 5C16.1929 5 5 16.1929 5 30C5 43.8071 16.1929 55 30 55Z" stroke="#FF6600" stroke-width="5" stroke-linecap="round" stroke-linejoin="round"/>
        <path d="M30 20V40" stroke="#FF6600" stroke-width="5" stroke-linecap="round" stroke-linejoin="round"/>
        <path d="M20 30H40" stroke="#FF6600" stroke-width="5" stroke-linecap="round" stroke-linejoin="round"/>
    </symbol>

    <symbol viewBox="0 0 20 15" fill="none" id="apply">
        <path d="M18 2L7 13L2 8" stroke="#FF6600" stroke-width="3" stroke-linecap="round" stroke-linejoin="round"/>
    </symbol>

    <symbol viewBox="0 0 60 60" fill="none" id="clock">
        <path d="M30 55C43.8071 55 55 43.8071 55 30C55 16.1929 43.8071 5 30 5C16.1929 5 5 16.1929 5 30C5 43.8071 16.1929 55 30 55Z" stroke="#FF6600" stroke-width="5" stroke-linecap="round" stroke-linejoin="round"/>
        <path d="M30 15V30L40 35" stroke="#FF6600" stroke-width="5" stroke-linecap="round" stroke-linejoin="round"/>
    </symbol>

    <symbol viewBox="0 0 60 60" fill="none" id="home">
        <path d="M7.5 22.5L30 5L52.5 22.5V50C52.5 51.3261 51.9732 52.5979 51.0355 53.5355C50.0979 54.4732 48.8261 55 47.5 55H12.5C11.1739 55 9.90215 54.4732 8.96447 53.5355C8.02678 52.5979 7.5 51.3261 7.5 50V22.5Z" stroke="#FF6600" stroke-width="5" stroke-linecap="round" stroke-linejoin="round"/>
        <path d="M22.5 55V30H37.5V55" stroke="#FF6600" stroke-width="5" stroke-linecap="round" stroke-linejoin="round"/>
    </symbol>

    <symbol viewBox="0 0 60 60" fill="none" id="headphones">
        <path d="M7.5 45V30C7.5 24.0326 9.87053 18.3097 14.0901 14.0901C18.3097 9.87053 24.0326 7.5 30 7.5C35.9674 7.5 41.6903 9.87053 45.9099 14.0901C50.1295 18.3097 52.5 24.0326 52.5 30V45" stroke="#FF6600" stroke-width="5" stroke-linecap="round" stroke-linejoin="round"/>
        <path d="M52.5 47.5C52.5 48.8261 51.9732 50.0979 51.0355 51.0355C50.0979 51.9732 48.8261 52.5 47.5 52.5H45C43.6739 52.5 42.4021 51.9732 41.4645 51.0355C40.5268 50.0979 40 48.8261 40 47.5V40C40 38.6739 40.5268 37.4021 41.4645 36.4645C42.4021 35.5268 43.6739 35 45 35H52.5V47.5ZM7.5 47.5C7.5 48.8261 8.02678 50.0979 8.96447 51.0355C9.90215 51.9732 11.1739 52.5 12.5 52.5H15C16.3261 52.5 17.5979 51.9732 18.5355 51.0355C19.4732 50.0979 20 48.8261 20 47.5V40C20 38.6739 19.4732 37.4021 18.5355 36.4645C17.5979 35.5268 16.3261 35 15 35H7.5V47.5Z" stroke="#FF6600" stroke-width="5" stroke-linecap="round" stroke-linejoin="round"/>
    </symbol>

    <symbol viewBox="0 0 60 60" fill="none" id="rub">
        <path d="M22.1765 9V53" stroke="#FF6600" stroke-width="5" stroke-linecap="round" stroke-linejoin="round"/>
        <path d="M17 41.7843L34.2549 41.7843" stroke="#FF6600" stroke-width="5" stroke-linecap="round" stroke-linejoin="round"/>
        <path d="M22.1765 9H37.3333C42.3039 9 46.3333 13.0294 46.3333 18V22.4314C46.3333 27.4019 42.3039 31.4314 37.3333 31.4314H17" stroke="#FF6600" stroke-width="5" stroke-linecap="round" stroke-linejoin="round"/>
    </symbol>

    <symbol viewBox="0 0 60 60" fill="none" id="cube">
        <path d="M52.5 40V20C52.4991 19.1232 52.2676 18.262 51.8288 17.5029C51.3901 16.7438 50.7593 16.1134 50 15.675L32.5 5.675C31.7399 5.23616 30.8777 5.00513 30 5.00513C29.1223 5.00513 28.2601 5.23616 27.5 5.675L10 15.675C9.24066 16.1134 8.60995 16.7438 8.17115 17.5029C7.73236 18.262 7.5009 19.1232 7.5 20V40C7.5009 40.8768 7.73236 41.738 8.17115 42.4971C8.60995 43.2562 9.24066 43.8866 10 44.325L27.5 54.325C28.2601 54.7638 29.1223 54.9949 30 54.9949C30.8777 54.9949 31.7399 54.7638 32.5 54.325L50 44.325C50.7593 43.8866 51.3901 43.2562 51.8288 42.4971C52.2676 41.738 52.4991 40.8768 52.5 40Z" stroke="#FF6600" stroke-width="5" stroke-linecap="round" stroke-linejoin="round"/>
        <path d="M8.17505 17.4L30 30.025L51.825 17.4" stroke="#FF6600" stroke-width="5" stroke-linecap="round" stroke-linejoin="round"/>
        <path d="M30 55.2V30" stroke="#FF6600" stroke-width="5" stroke-linecap="round" stroke-linejoin="round"/>
    </symbol>

    <symbol viewBox="0 0 23 22" fill="none" id="apply-circle">
        <path d="M21.0669 10.0857V11.0057C21.0657 13.1621 20.3651 15.2604 19.0696 16.9875C17.7741 18.7147 15.9532 19.9782 13.8783 20.5896C11.8035 21.201 9.5859 21.1276 7.55634 20.3803C5.52678 19.633 3.79398 18.2518 2.61635 16.4428C1.43873 14.6338 0.879389 12.4938 1.02175 10.342C1.16411 8.19029 2.00054 6.14205 3.40631 4.5028C4.81207 2.86354 6.71184 1.72111 8.82228 1.24587C10.9327 0.770634 13.1408 0.988061 15.1171 1.86572" stroke="#F76201" stroke-width="2" stroke-linecap="round" stroke-linejoin="round"/>
        <path d="M21.0668 3.00562L11.0334 13.0156L8.02332 10.0156" stroke="#F76201" stroke-width="2" stroke-linecap="round" stroke-linejoin="round"/>
    </symbol>

    <symbol viewBox="0 0 61 18" fill="none" id="login">
        <path d="M34.078 6.51C34.078 6.75267 34.0407 6.99533 33.966 7.238C33.9007 7.47133 33.7933 7.69067 33.644 7.896C33.4947 8.10133 33.2987 8.27867 33.056 8.428C32.8133 8.57733 32.5193 8.68467 32.174 8.75V8.834C32.482 8.862 32.7713 8.932 33.042 9.044C33.3127 9.156 33.546 9.31467 33.742 9.52C33.9473 9.716 34.106 9.95867 34.218 10.248C34.3393 10.528 34.4 10.8593 34.4 11.242C34.4 11.7553 34.2787 12.194 34.036 12.558C33.8027 12.922 33.4947 13.2207 33.112 13.454C32.7293 13.6873 32.2907 13.86 31.796 13.972C31.3013 14.084 30.7973 14.14 30.284 14.14C30.116 14.14 29.892 14.14 29.612 14.14C29.3413 14.14 29.0473 14.1307 28.73 14.112C28.422 14.1027 28.1047 14.084 27.778 14.056C27.4607 14.028 27.1713 13.986 26.91 13.93V4.27C27.106 4.242 27.3253 4.214 27.568 4.186C27.82 4.158 28.086 4.13467 28.366 4.116C28.6553 4.09733 28.9493 4.08333 29.248 4.074C29.5467 4.06467 29.8453 4.06 30.144 4.06C30.6293 4.06 31.1053 4.09733 31.572 4.172C32.0387 4.23733 32.4587 4.36333 32.832 4.55C33.2053 4.72733 33.504 4.97467 33.728 5.292C33.9613 5.60933 34.078 6.01533 34.078 6.51ZM30.256 12.46C30.5173 12.46 30.7647 12.4367 30.998 12.39C31.2407 12.3433 31.4507 12.2687 31.628 12.166C31.8147 12.054 31.9593 11.9187 32.062 11.76C32.174 11.592 32.23 11.3867 32.23 11.144C32.23 10.8453 32.1647 10.6073 32.034 10.43C31.9033 10.2527 31.7307 10.122 31.516 10.038C31.3107 9.94467 31.0773 9.88867 30.816 9.87C30.564 9.842 30.3073 9.828 30.046 9.828H28.898V12.376C28.954 12.3947 29.0333 12.4087 29.136 12.418C29.248 12.4273 29.3693 12.4367 29.5 12.446C29.6307 12.446 29.7613 12.4507 29.892 12.46C30.032 12.46 30.1533 12.46 30.256 12.46ZM29.598 8.288C29.738 8.288 29.9013 8.288 30.088 8.288C30.284 8.27867 30.4473 8.26467 30.578 8.246C30.97 8.12467 31.3013 7.96133 31.572 7.756C31.8427 7.54133 31.978 7.252 31.978 6.888C31.978 6.64533 31.9267 6.44933 31.824 6.3C31.7213 6.15067 31.5813 6.034 31.404 5.95C31.236 5.866 31.0447 5.81 30.83 5.782C30.6153 5.754 30.396 5.74 30.172 5.74C29.9013 5.74 29.654 5.74467 29.43 5.754C29.206 5.76333 29.0287 5.77733 28.898 5.796V8.288H29.598ZM37.6568 10.234L35.2488 6.65H37.6288L38.6228 8.078L38.6088 8.064L39.1828 9.366L39.7428 8.064L39.7288 8.078L40.7928 6.65H42.9488L40.5268 10.178L43.1028 14H40.7788L39.5888 12.348L39.6028 12.362L39.0148 11.074L38.3988 12.362L38.4128 12.348L37.2088 14H35.0528L37.6568 10.234ZM43.5958 10.332C43.5958 9.11867 43.9178 8.16667 44.5618 7.476C45.2058 6.78533 46.1251 6.44 47.3198 6.44C47.9451 6.44 48.4911 6.538 48.9578 6.734C49.4245 6.93 49.8118 7.20533 50.1198 7.56C50.4278 7.90533 50.6565 8.316 50.8058 8.792C50.9645 9.25867 51.0438 9.772 51.0438 10.332C51.0438 10.9293 50.9598 11.4707 50.7918 11.956C50.6238 12.432 50.3811 12.838 50.0638 13.174C49.7465 13.51 49.3545 13.7667 48.8878 13.944C48.4305 14.1213 47.9078 14.21 47.3198 14.21C46.6851 14.21 46.1345 14.112 45.6678 13.916C45.2011 13.72 44.8138 13.4493 44.5058 13.104C44.1978 12.7493 43.9691 12.3387 43.8198 11.872C43.6705 11.396 43.5958 10.8827 43.5958 10.332ZM45.6118 10.332C45.6118 10.64 45.6445 10.9293 45.7098 11.2C45.7751 11.4707 45.8731 11.7087 46.0038 11.914C46.1438 12.11 46.3211 12.2687 46.5358 12.39C46.7505 12.5113 47.0118 12.572 47.3198 12.572C48.4585 12.572 49.0278 11.8253 49.0278 10.332C49.0278 10.0053 48.9951 9.70667 48.9298 9.436C48.8738 9.156 48.7758 8.918 48.6358 8.722C48.5051 8.51667 48.3278 8.358 48.1038 8.246C47.8891 8.134 47.6278 8.078 47.3198 8.078C46.7878 8.078 46.3678 8.25533 46.0598 8.61C45.7611 8.96467 45.6118 9.53867 45.6118 10.332ZM60.4688 15.666H59.0968L58.8448 14H53.2728L53.0068 15.666H51.6348V12.264H52.5588C52.6428 12.152 52.7548 11.9653 52.8948 11.704C53.0441 11.4427 53.1841 11.088 53.3148 10.64C53.4548 10.192 53.5714 9.64133 53.6648 8.988C53.7674 8.32533 53.8234 7.546 53.8328 6.65H59.2928V12.264H60.4688V15.666ZM57.3328 12.362V8.288H55.4988C55.4801 8.652 55.4428 9.03 55.3868 9.422C55.3308 9.814 55.2608 10.192 55.1768 10.556C55.0928 10.92 54.9948 11.2607 54.8828 11.578C54.7708 11.8953 54.6494 12.1567 54.5188 12.362H57.3328Z" fill="#6F6F6F"/>
        <path d="M8 3C10.4299 3 14.2222 3 14.2222 3C14.4285 3 14.6263 3.16389 14.7722 3.45561C14.9181 3.74733 15 4.143 15 4.55556V15.4444C15 15.857 14.9181 16.2527 14.7722 16.5444C14.6263 16.8361 14.4285 17 14.2222 17H8" stroke="#6F6F6F" stroke-width="2" stroke-linecap="round" stroke-linejoin="round"/>
        <path d="M7 13L10 10L7 7" stroke="#6F6F6F" stroke-width="2" stroke-linecap="round" stroke-linejoin="round"/>
        <path d="M10 10H1" stroke="#6F6F6F" stroke-width="2" stroke-linecap="round" stroke-linejoin="round"/>
    </symbol>

    <symbol viewBox="0 0 40 40" fill="none" id="arrow-left">
        <path d="M31.6666 20H8.33329" stroke="white" stroke-width="3" stroke-linecap="round" stroke-linejoin="round"/>
        <path d="M20 8.33331L8.33333 20L20 31.6666" stroke="white" stroke-width="3" stroke-linecap="round" stroke-linejoin="round"/>
    </symbol>

    <symbol viewBox="0 0 23 18" fill="none" id="moreMenu">
        <path d="M21.5714 9H1" stroke="#6F6F6F" stroke-linecap="round" stroke-linejoin="round"/>
        <path d="M21.5714 1H1" stroke="#6F6F6F" stroke-linecap="round" stroke-linejoin="round"/>
        <path d="M21.5714 17H1" stroke="#6F6F6F" stroke-linecap="round" stroke-linejoin="round"/>
    </symbol>
</svg>